<svg width="230" height="230" viewBox="0 0 230 230" fill="none" xmlns="http://www.w3.org/2000/svg">
<rect width="230" height="230" rx="32" fill="#0031AA"/>
<path d="M162.797 129.743L117.229 52.268C117.008 51.8855 116.689 51.5668 116.303 51.3442C115.916 51.1216 115.477 51.0029 115.029 51.0001C114.582 50.9972 114.141 51.1104 113.752 51.3282C113.363 51.546 113.039 51.8606 112.814 52.2403L99.1667 75.455C98.7198 76.2149 98.4845 77.0769 98.4845 77.9544C98.4845 78.8319 98.7198 79.6939 99.1667 80.4538L128.88 130.996C129.327 131.756 129.971 132.388 130.746 132.827C131.521 133.265 132.4 133.496 133.295 133.495H160.589C161.036 133.494 161.475 133.377 161.861 133.158C162.248 132.938 162.569 132.622 162.793 132.242C163.016 131.862 163.134 131.432 163.135 130.993C163.135 130.554 163.019 130.123 162.797 129.743Z" fill="white"/>
<path d="M43.3514 170.234L88.9192 92.7591C89.1428 92.3796 89.4642 92.0645 89.8511 91.8454C90.2379 91.6263 90.6766 91.511 91.1232 91.511C91.5698 91.511 92.0086 91.6263 92.3955 91.8454C92.7823 92.0645 93.1036 92.3796 93.3272 92.7591L106.981 115.953C107.428 116.714 107.663 117.577 107.663 118.456C107.663 119.334 107.428 120.198 106.981 120.959L77.268 171.501C76.8224 172.261 76.1802 172.893 75.4062 173.332C74.6322 173.771 73.7539 174.001 72.8601 174H45.5589C45.1091 174.002 44.6669 173.887 44.277 173.667C43.8871 173.447 43.5635 173.13 43.3392 172.747C43.1149 172.364 42.9979 171.93 43 171.489C43.0022 171.047 43.1234 170.614 43.3514 170.234Z" fill="white"/>
<path d="M93.3206 173.983H184.456C184.903 173.983 185.343 173.867 185.729 173.647C186.116 173.427 186.437 173.111 186.66 172.731C186.883 172.351 187.001 171.919 187 171.48C186.999 171.042 186.881 170.611 186.657 170.231L173.024 147.023C172.576 146.262 171.933 145.631 171.158 145.192C170.383 144.753 169.504 144.523 168.609 144.524H109.182C108.288 144.523 107.408 144.753 106.633 145.192C105.858 145.631 105.215 146.262 104.767 147.023L91.1203 170.231C90.8961 170.611 90.7778 171.042 90.7771 171.48C90.7765 171.919 90.8935 172.351 91.1165 172.731C91.3395 173.111 91.6608 173.427 92.0477 173.647C92.4346 173.867 92.8736 173.983 93.3206 173.983Z" fill="white"/>
</svg>
